<mxfile host="app.diagrams.net" modified="2022-06-05T14:58:08.541Z" agent="5.0 (Macintosh; Intel Mac OS X 10_15_7) AppleWebKit/537.36 (KHTML, like Gecko) Chrome/102.0.5005.61 Safari/537.36" etag="jZLKCclY3hOgWp8tXUML" version="17.4.0" type="github">
  <diagram id="8muX0sjRzwP81RkUxKTJ" name="第 1 页">
    <mxGraphModel dx="1426" dy="769" grid="0" gridSize="10" guides="1" tooltips="1" connect="1" arrows="1" fold="1" page="1" pageScale="1" pageWidth="827" pageHeight="1169" math="0" shadow="0">
      <root>
        <mxCell id="0" />
        <mxCell id="1" parent="0" />
        <mxCell id="4YeU4yPU892kGNFo-zLr-1" value="&lt;span style=&quot;font-size: 14px&quot;&gt;&lt;sub&gt;Interface&lt;/sub&gt;&lt;br&gt;&lt;b&gt;Collection&lt;/b&gt;&lt;/span&gt;" style="rounded=1;whiteSpace=wrap;html=1;strokeWidth=2;fillWeight=4;hachureGap=8;hachureAngle=45;sketch=1;" parent="1" vertex="1">
          <mxGeometry x="380" y="120" width="120" height="60" as="geometry" />
        </mxCell>
        <mxCell id="4YeU4yPU892kGNFo-zLr-2" style="edgeStyle=orthogonalEdgeStyle;rounded=0;sketch=1;orthogonalLoop=1;jettySize=auto;html=1;exitX=0.5;exitY=0;exitDx=0;exitDy=0;" parent="1" source="4YeU4yPU892kGNFo-zLr-4" target="4YeU4yPU892kGNFo-zLr-1" edge="1">
          <mxGeometry relative="1" as="geometry" />
        </mxCell>
        <mxCell id="4YeU4yPU892kGNFo-zLr-3" style="edgeStyle=orthogonalEdgeStyle;sketch=1;orthogonalLoop=1;jettySize=auto;html=1;exitX=0;exitY=0.5;exitDx=0;exitDy=0;entryX=0.96;entryY=0.7;entryDx=0;entryDy=0;entryPerimeter=0;curved=1;dashed=1;" parent="1" source="4YeU4yPU892kGNFo-zLr-4" target="4YeU4yPU892kGNFo-zLr-20" edge="1">
          <mxGeometry relative="1" as="geometry" />
        </mxCell>
        <mxCell id="4YeU4yPU892kGNFo-zLr-4" value="&lt;span style=&quot;font-size: 14px&quot;&gt;&lt;sub&gt;Interface&lt;/sub&gt;&lt;br&gt;&lt;b&gt;List&lt;/b&gt;&lt;/span&gt;" style="rounded=1;whiteSpace=wrap;html=1;strokeWidth=2;fillWeight=4;hachureGap=8;hachureAngle=45;sketch=1;" parent="1" vertex="1">
          <mxGeometry x="210" y="220" width="120" height="60" as="geometry" />
        </mxCell>
        <mxCell id="4YeU4yPU892kGNFo-zLr-5" style="edgeStyle=orthogonalEdgeStyle;rounded=0;sketch=1;orthogonalLoop=1;jettySize=auto;html=1;exitX=0.5;exitY=0;exitDx=0;exitDy=0;entryX=0.5;entryY=1;entryDx=0;entryDy=0;" parent="1" source="4YeU4yPU892kGNFo-zLr-7" target="4YeU4yPU892kGNFo-zLr-1" edge="1">
          <mxGeometry relative="1" as="geometry">
            <mxPoint x="450" y="190" as="targetPoint" />
          </mxGeometry>
        </mxCell>
        <mxCell id="4YeU4yPU892kGNFo-zLr-6" style="edgeStyle=isometricEdgeStyle;sketch=1;orthogonalLoop=1;jettySize=auto;html=1;exitX=1;exitY=0.5;exitDx=0;exitDy=0;entryX=0.55;entryY=0.95;entryDx=0;entryDy=0;entryPerimeter=0;dashed=1;" parent="1" source="4YeU4yPU892kGNFo-zLr-7" target="4YeU4yPU892kGNFo-zLr-21" edge="1">
          <mxGeometry relative="1" as="geometry" />
        </mxCell>
        <mxCell id="4YeU4yPU892kGNFo-zLr-7" value="&lt;span style=&quot;font-size: 14px&quot;&gt;&lt;sub&gt;Interface&lt;/sub&gt;&lt;br&gt;&lt;b&gt;Set&lt;/b&gt;&lt;br&gt;&lt;/span&gt;" style="rounded=1;whiteSpace=wrap;html=1;strokeWidth=2;fillWeight=4;hachureGap=8;hachureAngle=45;sketch=1;" parent="1" vertex="1">
          <mxGeometry x="530" y="220" width="120" height="60" as="geometry" />
        </mxCell>
        <mxCell id="4YeU4yPU892kGNFo-zLr-8" style="edgeStyle=orthogonalEdgeStyle;rounded=0;sketch=1;orthogonalLoop=1;jettySize=auto;html=1;exitX=0.5;exitY=0;exitDx=0;exitDy=0;entryX=0.5;entryY=1;entryDx=0;entryDy=0;" parent="1" source="4YeU4yPU892kGNFo-zLr-9" target="4YeU4yPU892kGNFo-zLr-4" edge="1">
          <mxGeometry relative="1" as="geometry" />
        </mxCell>
        <mxCell id="4YeU4yPU892kGNFo-zLr-9" value="&lt;span style=&quot;font-size: 11.6667px&quot;&gt;Class&lt;/span&gt;&lt;br&gt;&lt;b style=&quot;font-size: 14px&quot;&gt;ArrayList&lt;/b&gt;" style="rounded=1;whiteSpace=wrap;html=1;strokeWidth=2;fillWeight=4;hachureGap=8;hachureAngle=45;sketch=1;fillColor=#dae8fc;strokeColor=#6c8ebf;" parent="1" vertex="1">
          <mxGeometry x="70" y="350" width="120" height="60" as="geometry" />
        </mxCell>
        <mxCell id="4YeU4yPU892kGNFo-zLr-10" style="edgeStyle=orthogonalEdgeStyle;rounded=0;sketch=1;orthogonalLoop=1;jettySize=auto;html=1;exitX=0.5;exitY=0;exitDx=0;exitDy=0;" parent="1" source="4YeU4yPU892kGNFo-zLr-11" edge="1">
          <mxGeometry relative="1" as="geometry">
            <mxPoint x="270" y="280" as="targetPoint" />
          </mxGeometry>
        </mxCell>
        <mxCell id="4YeU4yPU892kGNFo-zLr-11" value="&lt;span style=&quot;font-size: 11.6667px&quot;&gt;Class&lt;/span&gt;&lt;span style=&quot;font-size: 14px&quot;&gt;&lt;br&gt;&lt;b&gt;LinkedList&lt;/b&gt;&lt;/span&gt;" style="rounded=1;whiteSpace=wrap;html=1;strokeWidth=2;fillWeight=4;hachureGap=8;hachureAngle=45;sketch=1;fillColor=#dae8fc;strokeColor=#6c8ebf;" parent="1" vertex="1">
          <mxGeometry x="210" y="350" width="120" height="60" as="geometry" />
        </mxCell>
        <mxCell id="4YeU4yPU892kGNFo-zLr-12" style="edgeStyle=orthogonalEdgeStyle;rounded=0;sketch=1;orthogonalLoop=1;jettySize=auto;html=1;exitX=0.5;exitY=0;exitDx=0;exitDy=0;" parent="1" source="4YeU4yPU892kGNFo-zLr-13" edge="1">
          <mxGeometry relative="1" as="geometry">
            <mxPoint x="270" y="280" as="targetPoint" />
          </mxGeometry>
        </mxCell>
        <mxCell id="4YeU4yPU892kGNFo-zLr-13" value="&lt;span style=&quot;font-size: 11.6667px&quot;&gt;Class&lt;/span&gt;&lt;span style=&quot;font-size: 14px&quot;&gt;&lt;br&gt;&lt;b&gt;Vector&lt;/b&gt;&lt;/span&gt;" style="rounded=1;whiteSpace=wrap;html=1;strokeWidth=2;fillWeight=4;hachureGap=8;hachureAngle=45;sketch=1;fillColor=#dae8fc;strokeColor=#6c8ebf;" parent="1" vertex="1">
          <mxGeometry x="354" y="350" width="120" height="60" as="geometry" />
        </mxCell>
        <mxCell id="4YeU4yPU892kGNFo-zLr-14" style="edgeStyle=orthogonalEdgeStyle;rounded=0;sketch=1;orthogonalLoop=1;jettySize=auto;html=1;exitX=0.5;exitY=0;exitDx=0;exitDy=0;" parent="1" source="4YeU4yPU892kGNFo-zLr-15" target="4YeU4yPU892kGNFo-zLr-7" edge="1">
          <mxGeometry relative="1" as="geometry" />
        </mxCell>
        <mxCell id="4YeU4yPU892kGNFo-zLr-15" value="&lt;span style=&quot;font-size: 11.6667px&quot;&gt;Class&lt;/span&gt;&lt;span style=&quot;font-size: 14px&quot;&gt;&lt;br&gt;&lt;b&gt;HashSet&lt;/b&gt;&lt;br&gt;&lt;/span&gt;" style="rounded=1;whiteSpace=wrap;html=1;strokeWidth=2;fillWeight=4;hachureGap=8;hachureAngle=45;sketch=1;fillColor=#dae8fc;strokeColor=#6c8ebf;" parent="1" vertex="1">
          <mxGeometry x="530" y="350" width="120" height="60" as="geometry" />
        </mxCell>
        <mxCell id="4YeU4yPU892kGNFo-zLr-16" style="edgeStyle=orthogonalEdgeStyle;rounded=0;sketch=1;orthogonalLoop=1;jettySize=auto;html=1;exitX=0.5;exitY=0;exitDx=0;exitDy=0;entryX=0.5;entryY=1;entryDx=0;entryDy=0;" parent="1" source="4YeU4yPU892kGNFo-zLr-17" target="4YeU4yPU892kGNFo-zLr-7" edge="1">
          <mxGeometry relative="1" as="geometry" />
        </mxCell>
        <mxCell id="4YeU4yPU892kGNFo-zLr-17" value="&lt;span style=&quot;font-size: 14px&quot;&gt;&lt;sub&gt;Interface&lt;/sub&gt;&lt;br&gt;&lt;b&gt;SortedSet&lt;/b&gt;&lt;br&gt;&lt;/span&gt;" style="rounded=1;whiteSpace=wrap;html=1;strokeWidth=2;fillWeight=4;hachureGap=8;hachureAngle=45;sketch=1;" parent="1" vertex="1">
          <mxGeometry x="680" y="350" width="120" height="60" as="geometry" />
        </mxCell>
        <mxCell id="4YeU4yPU892kGNFo-zLr-18" style="edgeStyle=orthogonalEdgeStyle;rounded=0;sketch=1;orthogonalLoop=1;jettySize=auto;html=1;entryX=0.5;entryY=1;entryDx=0;entryDy=0;" parent="1" source="4YeU4yPU892kGNFo-zLr-19" target="4YeU4yPU892kGNFo-zLr-17" edge="1">
          <mxGeometry relative="1" as="geometry" />
        </mxCell>
        <mxCell id="4YeU4yPU892kGNFo-zLr-19" value="&lt;span style=&quot;font-size: 11.6667px&quot;&gt;Class&lt;/span&gt;&lt;span style=&quot;font-size: 14px&quot;&gt;&lt;br&gt;&lt;b&gt;TreeSet&lt;/b&gt;&lt;br&gt;&lt;/span&gt;" style="rounded=1;whiteSpace=wrap;html=1;strokeWidth=2;fillWeight=4;hachureGap=8;hachureAngle=45;sketch=1;fillColor=#dae8fc;strokeColor=#6c8ebf;" parent="1" vertex="1">
          <mxGeometry x="680" y="450" width="120" height="60" as="geometry" />
        </mxCell>
        <mxCell id="4YeU4yPU892kGNFo-zLr-20" value="有序&lt;br&gt;有下标&lt;br&gt;可重复" style="ellipse;shape=cloud;whiteSpace=wrap;html=1;rounded=1;sketch=1;fillColor=#d5e8d4;strokeColor=#82b366;" parent="1" vertex="1">
          <mxGeometry x="30" y="160" width="120" height="80" as="geometry" />
        </mxCell>
        <mxCell id="4YeU4yPU892kGNFo-zLr-21" value="无序&lt;br&gt;无下标&lt;br&gt;不能重复" style="ellipse;shape=cloud;whiteSpace=wrap;html=1;rounded=1;sketch=1;fillColor=#d5e8d4;strokeColor=#82b366;" parent="1" vertex="1">
          <mxGeometry x="673" y="194" width="120" height="80" as="geometry" />
        </mxCell>
      </root>
    </mxGraphModel>
  </diagram>
</mxfile>
